<?xml version="1.0" encoding="UTF-8" standalone="no"?>
<svg
   xmlns:dc="http://purl.org/dc/elements/1.1/"
   xmlns:cc="http://creativecommons.org/ns#"
   xmlns:rdf="http://www.w3.org/1999/02/22-rdf-syntax-ns#"
   xmlns:svg="http://www.w3.org/2000/svg"
   xmlns="http://www.w3.org/2000/svg"
   xmlns:sodipodi="http://sodipodi.sourceforge.net/DTD/sodipodi-0.dtd"
   xmlns:inkscape="http://www.inkscape.org/namespaces/inkscape"
   width="115"
   height="115"
   version="1.1"
   id="svg3787"
   sodipodi:docname="midi.svg"
   inkscape:version="0.92.5 (2060ec1f9f, 2020-04-08)">
  <metadata
     id="metadata3793">
    <rdf:RDF>
      <cc:Work
         rdf:about="">
        <dc:format>image/svg+xml</dc:format>
        <dc:type
           rdf:resource="http://purl.org/dc/dcmitype/StillImage" />
        <dc:title>DDD</dc:title>
      </cc:Work>
    </rdf:RDF>
  </metadata>
  <defs
     id="defs3791" />
  <sodipodi:namedview
     pagecolor="#ffffff"
     bordercolor="#666666"
     borderopacity="1"
     objecttolerance="10"
     gridtolerance="10"
     guidetolerance="10"
     inkscape:pageopacity="0"
     inkscape:pageshadow="2"
     inkscape:window-width="1920"
     inkscape:window-height="1007"
     id="namedview3789"
     showgrid="false"
     inkscape:zoom="5.5304348"
     inkscape:cx="31.371855"
     inkscape:cy="71.875"
     inkscape:window-x="0"
     inkscape:window-y="0"
     inkscape:window-maximized="1"
     inkscape:current-layer="svg3787" />
  <title
     id="title3779">DDD</title>
  <g
     id="g3785"
     transform="translate(0.36163522,-0.54245283)">
    <title
       id="title3781">Layer 1</title>
    <path
       id="svg_1"
       d="m 57,107.743 c -27.57,0 -50,-22.43 -50,-50 0,-27.57 22.43,-50 50,-50 27.57,0 50,22.43 50,50 0,27.57 -22.43,50 -50,50 z m 0,-97.209 c -26.031,0 -47.209,21.178 -47.209,47.209 0,26.031 21.178,47.209 47.209,47.209 26.031,0 47.21,-21.179 47.21,-47.209 C 104.21,31.712 83.031,10.534 57,10.534 Z"
       inkscape:connector-curvature="0" />
    <path
       id="svg_2"
       d="m 67.896,16.965 v 9.349 c 0,0.512 -0.419,0.93 -0.931,0.93 h -19.93 c -0.511,0 -0.93,-0.418 -0.93,-0.93 v -9.349 c -18.029,4.805 -31.312,21.24 -31.312,40.782 0,23.31 18.896,42.207 42.207,42.207 23.311,0 42.207,-18.896 42.207,-42.207 0,-19.542 -13.283,-35.977 -31.311,-40.782 z M 28.862,66.002 c -2.166,0 -3.981,-1.484 -4.499,-3.488 H 23.36 c -1.535,0 -2.791,-0.523 -2.791,-1.163 0,-0.639 1.256,-1.162 2.791,-1.162 h 1.003 c 0.518,-2.005 2.333,-3.488 4.499,-3.488 2.166,0 3.981,1.483 4.498,3.488 h 0.852 c 1.535,0 2.791,0.523 2.791,1.162 0,0.64 -1.256,1.163 -2.791,1.163 H 33.36 c -0.517,2.004 -2.332,3.488 -4.498,3.488 z m 10.465,16.976 c -0.528,0 -1.033,-0.092 -1.505,-0.254 l -0.511,0.884 c -0.768,1.329 -1.849,2.155 -2.402,1.836 -0.554,-0.32 -0.379,-1.669 0.389,-2.999 l 0.581,-1.006 c -0.744,-0.825 -1.202,-1.914 -1.202,-3.111 0,-2.568 2.083,-4.651 4.651,-4.651 0.334,0 0.659,0.037 0.973,0.104 l 0.423,-0.732 c 0.768,-1.329 1.848,-2.155 2.402,-1.836 0.554,0.32 0.379,1.669 -0.388,2.999 l -0.355,0.615 c 0.976,0.854 1.597,2.104 1.597,3.502 -0.002,2.566 -2.086,4.649 -4.653,4.649 z m 18.836,6.823 v 1.161 c 0,1.534 -0.523,2.79 -1.163,2.79 -0.64,0 -1.163,-1.256 -1.163,-2.79 v -1.161 c -2.004,-0.517 -3.488,-2.332 -3.488,-4.498 0,-2.165 1.484,-3.98 3.488,-4.498 V 80.11 c 0,-1.535 0.523,-2.791 1.163,-2.791 0.64,0 1.163,1.256 1.163,2.791 v 0.694 c 2.004,0.518 3.487,2.333 3.487,4.498 0,2.167 -1.483,3.982 -3.487,4.499 z m 20.85,-4.358 c -0.554,0.319 -1.635,-0.507 -2.402,-1.836 l -0.496,-0.86 c -0.454,0.147 -0.938,0.23 -1.441,0.23 -2.567,0 -4.65,-2.083 -4.65,-4.65 0,-1.373 0.599,-2.603 1.545,-3.454 L 71.186,74.21 c -0.768,-1.33 -0.941,-2.679 -0.389,-2.999 0.554,-0.319 1.635,0.507 2.402,1.836 l 0.434,0.75 c 0.335,-0.076 0.683,-0.121 1.041,-0.121 2.568,0 4.651,2.083 4.651,4.651 0,1.223 -0.477,2.334 -1.25,3.164 l 0.55,0.953 c 0.767,1.33 0.941,2.679 0.388,2.999 z M 90.561,62.514 h -0.925 c -0.517,2.004 -2.332,3.488 -4.498,3.488 -2.165,0 -3.98,-1.484 -4.498,-3.488 h -0.932 c -1.534,0 -2.79,-0.523 -2.79,-1.163 0,-0.639 1.256,-1.162 2.79,-1.162 h 0.932 c 0.518,-2.005 2.333,-3.488 4.498,-3.488 2.166,0 3.981,1.483 4.498,3.488 h 0.925 c 1.535,0 2.791,0.523 2.791,1.162 0,0.639 -1.256,1.163 -2.791,1.163 z"
       inkscape:connector-curvature="0"
       style="fill:#ff0000" />
  </g>
  <path
     style="stroke-width:0.1808176"
     d="M 53.581442,99.174655 C 45.356126,98.376338 37.390742,95.1591 31.01022,90.058086 29.272765,88.669047 26.055581,85.46491 24.644878,83.718553 16.093869,73.132984 13.136683,58.854051 16.799612,45.837264 20.089899,34.144718 28.450536,24.275719 39.468591,19.07852 c 1.676901,-0.790991 5.212142,-2.106269 6.504286,-2.419904 l 0.497249,-0.120695 v 4.881352 4.881352 l 0.427022,0.279797 c 0.375036,0.245732 1.675646,0.273757 10.682889,0.23019 9.913183,-0.04795 10.264437,-0.06133 10.512441,-0.400596 0.206175,-0.28204 0.256578,-1.286183 0.256578,-5.111543 v -4.760552 l 0.497249,0.119366 c 2.42714,0.582638 7.916336,3.018384 10.697211,4.746722 9.282178,5.768953 16.119841,15.167305 18.707566,25.713507 0.733247,2.988336 1.029392,5.259529 1.142472,8.761868 0.19379,6.002069 -0.728163,11.4238 -2.847828,16.747237 -5.627401,14.132939 -18.218584,24.079034 -33.259563,26.272571 -2.474534,0.360879 -7.387753,0.500338 -9.704721,0.275463 z m 4.577307,-6.550834 c 0.175849,-0.337269 0.341109,-1.172586 0.387859,-1.960474 0.07987,-1.346066 0.09249,-1.376816 0.647535,-1.578051 0.909182,-0.329631 1.853876,-1.226133 2.357938,-2.237652 0.552418,-1.108559 0.634751,-2.777102 0.189607,-3.842483 -0.380787,-0.91135 -1.554466,-2.144929 -2.406205,-2.529011 -0.695041,-0.31342 -0.704957,-0.332016 -0.798511,-1.497501 -0.103424,-1.288441 -0.53639,-2.091535 -1.179299,-2.187448 -0.541345,-0.08076 -0.936004,0.626289 -1.189565,2.131154 -0.210439,1.248933 -0.231119,1.283789 -0.982102,1.655346 -2.197552,1.087261 -3.171345,4.059371 -2.050119,6.257157 0.45644,0.894695 1.358505,1.775933 2.226979,2.17556 0.618828,0.284751 0.682096,0.379767 0.690349,1.036752 0.01197,0.952914 0.316494,2.249993 0.64739,2.757468 0.402883,0.617876 1.08587,0.533181 1.458144,-0.180817 z M 36.362804,84.663032 c 0.337918,-0.226409 0.885271,-0.814804 1.216339,-1.307544 l 0.601943,-0.895895 1.387051,-0.0034 c 1.210554,-0.0029 1.513598,-0.07434 2.381548,-0.561048 2.500547,-1.402186 3.221143,-4.637156 1.527251,-6.856276 l -0.615243,-0.806011 0.345971,-0.591281 c 0.190285,-0.325204 0.440092,-0.969142 0.555127,-1.430972 0.547794,-2.199225 -1.335773,-2.102839 -2.647512,0.135479 l -0.46568,0.794621 h -1.101045 c -1.356288,0 -2.380218,0.458212 -3.300699,1.477076 -0.89607,0.991844 -1.22437,1.836725 -1.231256,3.168655 -0.0046,0.890535 0.102952,1.331982 0.525362,2.156251 l 0.531152,1.036465 -0.587657,1.165438 c -0.609332,1.208426 -0.76151,2.322263 -0.370676,2.713096 0.309742,0.309743 0.551452,0.272039 1.248024,-0.194672 z m 43.160781,0.194672 c 0.373891,-0.373891 0.23805,-1.455645 -0.334867,-2.666696 l -0.551563,-1.16591 0.479615,-0.881209 c 1.738788,-3.194728 -0.42365,-7.002439 -3.977351,-7.00349 l -1.094608,-3.61e-4 -0.511007,-0.808859 c -0.987351,-1.56285 -2.214285,-2.180613 -2.663572,-1.341113 -0.245915,0.459493 0.02561,1.737435 0.565003,2.659178 l 0.350506,0.598967 -0.449071,0.588764 c -1.061667,1.391918 -1.29036,3.365363 -0.569413,4.913608 0.833084,1.789062 2.922907,2.970204 4.811893,2.719622 l 0.852043,-0.113027 0.666246,1.003441 c 0.608846,0.916984 1.54543,1.711665 2.019306,1.713352 0.104422,3.62e-4 0.2875,-0.09696 0.40684,-0.216305 z M 30.660971,65.28035 c 1.152284,-0.343774 2.148973,-1.178256 2.695536,-2.256846 0.435087,-0.858601 0.435682,-0.858974 1.563196,-0.976822 1.367062,-0.142887 2.399316,-0.610988 2.472297,-1.121123 0.103312,-0.722144 -1.149884,-1.346157 -2.703465,-1.346157 -0.856504,0 -0.885853,-0.0182 -1.168525,-0.72467 -0.363897,-0.909467 -1.794039,-2.212978 -2.738377,-2.495908 -2.40461,-0.720439 -5.080175,0.449335 -5.841156,2.553794 -0.223261,0.617416 -0.236463,0.623598 -1.507777,0.70608 -3.456104,0.224226 -3.409889,2.10269 0.05967,2.425151 0.798798,0.07424 1.279646,0.199443 1.279646,0.333191 0,0.430387 1.126807,1.900022 1.753998,2.287646 1.449345,0.895745 2.614623,1.069247 4.134961,0.615664 z m 56.349416,-0.01501 c 1.078653,-0.367533 2.186631,-1.331674 2.664313,-2.318432 l 0.382592,-0.790332 1.248372,-0.123011 c 1.221041,-0.120317 2.323278,-0.62122 2.490833,-1.131936 0.202384,-0.616877 -1.319815,-1.319348 -2.862983,-1.32122 -0.794941,-9.04e-4 -0.845751,-0.03279 -1.158025,-0.725284 -0.388781,-0.862164 -1.330092,-1.871967 -2.131138,-2.286204 -0.894962,-0.462803 -2.851474,-0.5392 -3.867876,-0.151032 -1.01845,0.38895 -2.277879,1.599153 -2.604664,2.502863 -0.23199,0.641557 -0.262333,0.658648 -1.169362,0.658648 -1.60443,0 -2.860874,0.613684 -2.756085,1.346157 0.07482,0.522944 1.142597,0.993175 2.554705,1.12504 1.091298,0.101907 1.201597,0.15134 1.361564,0.610221 0.09574,0.274633 0.480109,0.838083 0.854157,1.25211 1.353857,1.498558 3.142778,1.98305 4.993597,1.352412 z"
     id="path3795"
     inkscape:connector-curvature="0" />
</svg>
